<?xml version="1.0" encoding="UTF-8"?>
<svg version="1.1" xmlns="http://www.w3.org/2000/svg" width="572" height="572" viewBox="0 0 572 572">
<path d="M0 0 C188.76 0 377.52 0 572 0 C572 188.76 572 377.52 572 572 C383.24 572 194.48 572 0 572 C0 383.24 0 194.48 0 0 Z " fill="#070707" transform="translate(0,0)"/>
<path d="M0 0 C1.67578125 1.3203125 1.67578125 1.3203125 3.86328125 3.4453125 C3.86328125 4.1053125 3.86328125 4.7653125 3.86328125 5.4453125 C4.48203125 5.6515625 5.10078125 5.8578125 5.73828125 6.0703125 C8.7098177 7.99307138 8.99352784 10.11125777 9.86328125 13.4453125 C10.52328125 13.4453125 11.18328125 13.4453125 11.86328125 13.4453125 C13.16531312 15.94036891 14.45488391 18.44068932 15.73828125 20.9453125 C16.10308594 21.64140625 16.46789062 22.3375 16.84375 23.0546875 C23.99053733 37.08837899 24.51608042 55.45354323 19.67578125 70.3828125 C17.68332305 76.07298593 15.09801004 81.36376624 11.86328125 86.4453125 C11.30640625 87.4559375 10.74953125 88.4665625 10.17578125 89.5078125 C9.74265625 90.1471875 9.30953125 90.7865625 8.86328125 91.4453125 C8.20328125 91.4453125 7.54328125 91.4453125 6.86328125 91.4453125 C6.49203125 92.3115625 6.49203125 92.3115625 6.11328125 93.1953125 C4.68028137 95.77471229 3.07903449 97.50652842 0.86328125 99.4453125 C0.20328125 99.4453125 -0.45671875 99.4453125 -1.13671875 99.4453125 C-1.63171875 100.9303125 -1.63171875 100.9303125 -2.13671875 102.4453125 C-18.1897317 115.04521429 -35.72662885 116.85734349 -55.49609375 115.15625 C-72.17573522 112.69769013 -85.10151587 102.8859721 -95.4296875 90.0859375 C-97.24635646 87.27571274 -98.22228147 84.65287711 -99.13671875 81.4453125 C-99.79671875 81.4453125 -100.45671875 81.4453125 -101.13671875 81.4453125 C-101.95570141 79.23919684 -102.76699418 77.0307291 -103.57421875 74.8203125 C-104.02667969 73.59054687 -104.47914063 72.36078125 -104.9453125 71.09375 C-110.37359653 54.47074251 -108.54968739 34.65861031 -100.97265625 19.046875 C-99.81068795 17.04702479 -98.5576241 15.27001401 -97.13671875 13.4453125 C-96.48058594 12.59066406 -95.82445312 11.73601562 -95.1484375 10.85546875 C-88.80971142 2.77851796 -88.80971142 2.77851796 -86.13671875 0.4453125 C-85.47671875 0.4453125 -84.81671875 0.4453125 -84.13671875 0.4453125 C-84.13671875 -0.2146875 -84.13671875 -0.8746875 -84.13671875 -1.5546875 C-57.68013632 -20.74867867 -25.93194944 -18.86821915 0 0 Z " fill="#F9F9F9" transform="translate(276.13671875,315.5546875)"/>
<path d="M0 0 C0 0.66 0 1.32 0 2 C0.99 2.2784375 0.99 2.2784375 2 2.5625 C6.26797601 4.60757184 9.82653318 7.48545964 13 11 C13.33672783 12.33248012 13.67067617 13.66567069 14 15 C15.485 15.495 15.485 15.495 17 16 C23.51228841 28.81753875 25.34990106 44.16317187 21 58 C17.1104147 67.4219768 12.30015558 74.9823872 4 81 C3.13375 81.680625 2.2675 82.36125 1.375 83.0625 C-10.59195361 89.93241782 -25.13025753 89.44479375 -38.20727539 86.18383789 C-47.60680569 83.33286678 -54.25215163 76.14314214 -59.5 68.0625 C-60.37784089 66.39771891 -61.21197478 64.70912754 -62 63 C-62.61488281 61.71802734 -62.61488281 61.71802734 -63.2421875 60.41015625 C-65.89156634 53.89633861 -66.37767535 47.69856986 -66.4375 40.75 C-66.44765137 39.91033691 -66.45780273 39.07067383 -66.46826172 38.20556641 C-66.38918929 32.56914995 -65.32108348 28.12077025 -63 23 C-62.61199219 22.10152344 -62.22398437 21.20304687 -61.82421875 20.27734375 C-57.0114062 10.37055779 -51.70734725 5.20997919 -42 0 C-40.906875 -0.598125 -39.81375 -1.19625 -38.6875 -1.8125 C-27.08292368 -6.94010349 -11.25896166 -5.03394693 0 0 Z " fill="#080808" transform="translate(255,324)"/>
<path d="M0 0 C6.93 0 13.86 0 21 0 C21 35.97 21 71.94 21 109 C38.82 109 56.64 109 75 109 C75 115.27 75 121.54 75 128 C50.25 128 25.5 128 0 128 C0 85.76 0 43.52 0 0 Z " fill="#F7F7F7" transform="translate(328,138)"/>
<path d="M0 0 C-1.64019906 3.46375462 -3.55984639 5.87894081 -6.1875 8.6875 C-9.92836653 12.74815028 -13.33035478 16.92894814 -16.58984375 21.3828125 C-17.05519531 21.91648437 -17.52054687 22.45015625 -18 23 C-18.66 23 -19.32 23 -20 23 C-20 23.66 -20 24.32 -20 25 C-20.66 25 -21.32 25 -22 25 C-22.24105469 25.54785156 -22.48210937 26.09570312 -22.73046875 26.66015625 C-24.29727196 29.54789508 -26.22161601 31.90384057 -28.3125 34.4375 C-29.07175781 35.36433594 -29.83101563 36.29117188 -30.61328125 37.24609375 C-33 40 -33 40 -35.5234375 42.515625 C-37.99275664 44.99273379 -40.15114609 47.56501621 -42.3125 50.3125 C-43.00988281 51.19550781 -43.70726562 52.07851563 -44.42578125 52.98828125 C-44.94527344 53.65214844 -45.46476562 54.31601562 -46 55 C-44.54272935 58.15143751 -42.7680102 60.78700138 -40.6875 63.5625 C-36.69360545 68.99596837 -32.82732794 74.51050228 -29 80.0625 C-28.41178467 80.90820557 -27.82356934 81.75391113 -27.2175293 82.62524414 C-26.67136963 83.42051514 -26.12520996 84.21578613 -25.5625 85.03515625 C-25.06878906 85.7506665 -24.57507813 86.46617676 -24.06640625 87.20336914 C-23 89 -23 89 -23 91 C-22.34 91 -21.68 91 -21 91 C-19.84375 92.4765625 -19.84375 92.4765625 -18.5 94.625 C-15.84149436 98.75182871 -13.05626253 102.76762501 -10.1875 106.75 C-6.73182216 111.57055861 -3.28140621 116.3944521 0.125 121.25 C0.87007813 122.30703125 1.61515625 123.3640625 2.3828125 124.453125 C4 127 4 127 4 129 C-17.04257437 131.69745298 -17.04257437 131.69745298 -23.32958984 127.41210938 C-28.81204803 121.67610309 -32.2892893 114.39150076 -35 107 C-35.66 107 -36.32 107 -37 107 C-38.0859375 105.41015625 -38.0859375 105.41015625 -39.375 103.0625 C-44.03473667 95.00863415 -49.58471094 87.55497969 -55 80 C-55.95726961 78.66032654 -56.91431737 77.32049452 -57.87109375 75.98046875 C-58.92490234 74.50513672 -58.92490234 74.50513672 -60 73 C-63.21275688 74.37988257 -65.0106398 75.90532376 -67.1875 78.625 C-68.10656697 79.76510839 -69.03944349 80.89462113 -70 82 C-70.33 82 -70.66 82 -71 82 C-71.07431978 77.94328317 -71.12868133 73.88683154 -71.16479492 69.82958984 C-71.17985422 68.45028782 -71.20030613 67.07103347 -71.22631836 65.69189453 C-71.26282415 63.70626597 -71.27814853 61.72028382 -71.29296875 59.734375 C-71.3086792 58.54038086 -71.32438965 57.34638672 -71.34057617 56.11621094 C-70.97303606 52.75328478 -70.39362 51.35252001 -68 49 C-67.34 49 -66.68 49 -66 49 C-65.75765625 48.43796875 -65.5153125 47.8759375 -65.265625 47.296875 C-63.7498937 44.54610337 -61.89611758 42.54211197 -59.75 40.25 C-56.40250412 36.6074524 -53.32796865 32.93269613 -50.484375 28.88671875 C-48.51801835 26.38737596 -46.24960808 24.24622012 -44 22 C-42.55915819 20.31200649 -41.1426746 18.60294811 -39.75 16.875 C-38.54923828 15.45380859 -38.54923828 15.45380859 -37.32421875 14.00390625 C-34.93103263 11.08879505 -34.93103263 11.08879505 -33.33203125 7.83984375 C-26.31229172 -4.1696444 -12.18328601 -0.94778038 0 0 Z " fill="#F7F7F7" transform="translate(399,302)"/>
<path d="M0 0 C0.66 0 1.32 0 2 0 C18.62011719 44.3203125 18.62011719 44.3203125 19.37937927 46.345047 C19.86800564 47.64802707 20.35666286 48.95099557 20.84535217 50.25395203 C22.06259483 53.49951129 23.27924468 56.74529081 24.49487305 59.99145508 C26.72892534 65.95557238 28.96635672 71.9182693 31.22488403 77.87316895 C41.05492465 103.79201074 41.05492465 103.79201074 45.25 116.375 C45.68107056 117.66603638 45.68107056 117.66603638 46.12084961 118.9831543 C48 124.72669135 48 124.72669135 48 127 C40.74 127 33.48 127 26 127 C23.90568624 120.71705871 21.92292129 114.46196891 20.0625 108.11328125 C19.06116369 104.92875962 19.06116369 104.92875962 17.375 101.85546875 C16 99 16 99 16 95 C-1.16 95 -18.32 95 -36 95 C-35 89 -35 89 -30 76 C-17.46 76 -4.92 76 8 76 C6.02934572 70.38140977 6.02934572 70.38140977 4.05834961 64.76293945 C2.21075608 59.48701688 0.38056138 54.20548851 -1.43359375 48.91796875 C-1.83908447 47.73831543 -2.2445752 46.55866211 -2.66235352 45.34326172 C-3.46602913 43.0032664 -4.26732817 40.66245339 -5.06616211 38.32080078 C-5.43362549 37.25200684 -5.80108887 36.18321289 -6.1796875 35.08203125 C-6.50694824 34.12530518 -6.83420898 33.1685791 -7.17138672 32.18286133 C-7.80848485 30.05480379 -7.80848485 30.05480379 -9 29 C-9.94839634 21.88702741 -6.84777911 16.38128407 -4 10 C-3.21944698 8.08727103 -2.44769091 6.17091252 -1.6875 4.25 C-1.36136719 3.43015625 -1.03523438 2.6103125 -0.69921875 1.765625 C-0.46847656 1.18296875 -0.23773438 0.6003125 0 0 Z " fill="#F8F8F8" transform="translate(232,139)"/>
<path d="M0 0 C2.78633115 4.17949673 4 6.93375326 4 12 C-8.54 12 -21.08 12 -34 12 C-34 11.67 -34 11.34 -34 11 C-19.15 10.505 -19.15 10.505 -4 10 C-3.34 8.68 -2.68 7.36 -2 6 C-1.01 6 -0.02 6 1 6 C0.505 3.03 0.505 3.03 0 0 Z " fill="#181818" transform="translate(236,203)"/>
<path d="M0 0 C0.66 0.33 1.32 0.66 2 1 C2 1.99 2 2.98 2 4 C2.99 3.67 3.98 3.34 5 3 C5 3.66 5 4.32 5 5 C2.25 7 2.25 7 -1 9 C-1.70125 9.433125 -2.4025 9.86625 -3.125 10.3125 C-5 11 -5 11 -9 10 C-6.03 6.7 -3.06 3.4 0 0 Z " fill="#1A1A1A" transform="translate(390,313)"/>
<path d="M0 0 C6.27 0 12.54 0 19 0 C17.68 0.33 16.36 0.66 15 1 C15 1.66 15 2.32 15 3 C10.05 3 5.1 3 0 3 C0 2.01 0 1.02 0 0 Z " fill="#ECECEC" transform="translate(329,138)"/>
<path d="M0 0 C0.33 0.66 0.66 1.32 1 2 C1.66 2.33 2.32 2.66 3 3 C-0.3 6.63 -3.6 10.26 -7 14 C-7.66 13.67 -8.32 13.34 -9 13 C-9 12.34 -9 11.68 -9 11 C-8.34 11 -7.68 11 -7 11 C-6.896875 10.38125 -6.79375 9.7625 -6.6875 9.125 C-6 7 -6 7 -3 5 C-1.94895617 3.36504293 -0.94011682 1.70116376 0 0 Z " fill="#111111" transform="translate(365,307)"/>
<path d="M0 0 C0 4.89971718 -1.92234393 8.28116558 -5 12 C-7.46278801 14.46278801 -9.70676982 14.99771255 -13 16 C-13 15.34 -13 14.68 -13 14 C-11.50390625 12.5625 -11.50390625 12.5625 -9.5625 11 C-6.84811762 8.85474956 -6.84811762 8.85474956 -5 6 C-4.34 6 -3.68 6 -3 6 C-2.690625 5.195625 -2.38125 4.39125 -2.0625 3.5625 C-1 1 -1 1 0 0 Z " fill="#383838" transform="translate(288,401)"/>
<path d="M0 0 C0 3.09875672 -0.58261252 5.24421515 -1.5 8.1875 C-1.7784375 9.08855469 -2.056875 9.98960937 -2.34375 10.91796875 C-2.66859375 11.94857422 -2.66859375 11.94857422 -3 13 C-3.99 13 -4.98 13 -6 13 C-6.3125 9.8125 -6.3125 9.8125 -6 6 C-3.5625 3.125 -3.5625 3.125 -1 1 C-0.67 0.67 -0.34 0.34 0 0 Z " fill="#181818" transform="translate(172,342)"/>
<path d="M0 0 C0 3.75803653 -0.90605184 4.28380887 -3.4375 6.9375 C-6.04866915 9.6752713 -7.12853603 11.3663065 -8 15 C-10.5625 16.25 -10.5625 16.25 -13 17 C-11.46203092 13.56546802 -9.4264398 10.85610724 -7.0625 7.9375 C-6.37285156 7.08027344 -5.68320313 6.22304688 -4.97265625 5.33984375 C-3.38385308 3.45530297 -1.77941245 1.70131911 0 0 Z " fill="#D0D0D0" transform="translate(190,316)"/>
<path d="M0 0 C2.78633115 4.17949673 4 6.93375326 4 12 C1.69 11.67 -0.62 11.34 -3 11 C-2.67 9.35 -2.34 7.7 -2 6 C-1.01 6 -0.02 6 1 6 C0.67 4.02 0.34 2.04 0 0 Z " fill="#272727" transform="translate(236,203)"/>
<path d="M0 0 C0.33 0.99 0.66 1.98 1 3 C1.99 3.33 2.98 3.66 4 4 C2.02 6.31 0.04 8.62 -2 11 C-2.99 10.67 -3.98 10.34 -5 10 C-5.33 9.01 -5.66 8.02 -6 7 C-4.7934375 6.6596875 -4.7934375 6.6596875 -3.5625 6.3125 C-2.716875 5.879375 -1.87125 5.44625 -1 5 C-0.10613836 2.45224694 -0.10613836 2.45224694 0 0 Z " fill="#171717" transform="translate(350,322)"/>
<path d="M0 0 C0.33 0.99 0.66 1.98 1 3 C0.34 3 -0.32 3 -1 3 C-0.87625 3.7425 -0.7525 4.485 -0.625 5.25 C-1 8 -1 8 -3.75 10.1875 C-6.1472284 11.52441584 -8.54101378 12.78654376 -11 14 C-9 11.33333333 -7 8.66666667 -5 6 C-4.48050781 5.25234375 -3.96101563 4.5046875 -3.42578125 3.734375 C-2.95527344 3.16203125 -2.48476563 2.5896875 -2 2 C-1.34 2 -0.68 2 0 2 C0 1.34 0 0.68 0 0 Z " fill="#383838" transform="translate(379,325)"/>
<path d="M0 0 C0.99 0.33 1.98 0.66 3 1 C1.8905928 4.48670834 0.73662334 7.77484237 -1 11 C-1.99 10.67 -2.98 10.34 -4 10 C-2.68 6.7 -1.36 3.4 0 0 Z " fill="#111111" transform="translate(290,397)"/>
<path d="M0 0 C2.09230769 4.43076923 2.09230769 4.43076923 1.625 7.3125 C1.41875 7.869375 1.2125 8.42625 1 9 C1 8.01 1 7.02 1 6 C0.01 6.33 -0.98 6.66 -2 7 C-2 6.01 -2 5.02 -2 4 C-3.65 4 -5.3 4 -7 4 C-6.67 3.01 -6.34 2.02 -6 1 C-4 0 -4 0 0 0 Z " fill="#1D1D1D" transform="translate(248,234)"/>
<path d="M0 0 C0.33 0.99 0.66 1.98 1 3 C0.21625 3.7425 -0.5675 4.485 -1.375 5.25 C-4.00302798 7.72323885 -4.00302798 7.72323885 -5.0625 10.1875 C-6.27341861 12.52860931 -7.60177814 13.04071126 -10 14 C-8.62815653 9.93501119 -6.77931541 7.32603439 -3.875 4.1875 C-3.15054687 3.39730469 -2.42609375 2.60710937 -1.6796875 1.79296875 C-1.12539063 1.20128906 -0.57109375 0.60960937 0 0 Z " fill="#393939" transform="translate(362,345)"/>
<path d="M0 0 C0.99 0.33 1.98 0.66 3 1 C2.07456291 2.34173403 1.13422595 3.67320159 0.1875 5 C-0.33457031 5.7425 -0.85664063 6.485 -1.39453125 7.25 C-1.92433594 7.8275 -2.45414063 8.405 -3 9 C-3.99 9 -4.98 9 -6 9 C-5.67 8.01 -5.34 7.02 -5 6 C-4.34 6 -3.68 6 -3 6 C-2.87625 5.38125 -2.7525 4.7625 -2.625 4.125 C-2 2 -2 2 0 0 Z " fill="#131313" transform="translate(186,316)"/>
<path d="M0 0 C0.33 0.66 0.66 1.32 1 2 C1.66 2 2.32 2 3 2 C2.01 4.97 1.02 7.94 0 11 C-0.99 10.67 -1.98 10.34 -3 10 C-2.69201674 8.51988629 -2.378482 7.04092675 -2.0625 5.5625 C-1.88847656 4.73878906 -1.71445313 3.91507813 -1.53515625 3.06640625 C-1 1 -1 1 0 0 Z " fill="#111111" transform="translate(226,145)"/>
<path d="M0 0 C1.5625 1.1875 1.5625 1.1875 3 3 C2.6875 5.6875 2.6875 5.6875 2 8 C2.66 8 3.32 8 4 8 C3.67 9.65 3.34 11.3 3 13 C-1.22222222 6.66666667 -1.22222222 6.66666667 -0.625 2.1875 C-0.41875 1.465625 -0.2125 0.74375 0 0 Z " fill="#141414" transform="translate(256,193)"/>
<path d="M0 0 C1.59035502 3.18071004 2.64848268 5.87657653 3.625 9.25 C3.88539063 10.14203125 4.14578125 11.0340625 4.4140625 11.953125 C4.60742188 12.62859375 4.80078125 13.3040625 5 14 C2.525 13.01 2.525 13.01 0 12 C0 8.04 0 4.08 0 0 Z " fill="#272727" transform="translate(229,183)"/>
<path d="M0 0 C3.3 0.99 6.6 1.98 10 3 C6 6 6 6 4 6 C1.875 4.125 1.875 4.125 0 2 C0 1.34 0 0.68 0 0 Z " fill="#2C2C2C" transform="translate(245,321)"/>
<path d="M0 0 C0.66 1.32 1.32 2.64 2 4 C2.66 4 3.32 4 4 4 C4.33 5.32 4.66 6.64 5 8 C3.68 8.33 2.36 8.66 1 9 C0.67 7.02 0.34 5.04 0 3 C-0.66 3 -1.32 3 -2 3 C-1 1 -1 1 0 0 Z " fill="#181818" transform="translate(360,405)"/>
<path d="M0 0 C2.01136276 2.55991624 3.62845496 5.04590299 5 8 C3.68 8.33 2.36 8.66 1 9 C-0.625 7.3125 -0.625 7.3125 -2 5 C-1.1875 2.25 -1.1875 2.25 0 0 Z " fill="#2A2A2A" transform="translate(176,397)"/>
<path d="M0 0 C2.69069473 1.64913548 3.83824681 2.52629422 4.875 5.5625 C4.936875 6.7690625 4.936875 6.7690625 5 8 C4.34 8.66 3.68 9.32 3 10 C2.67 8.68 2.34 7.36 2 6 C1.34 6 0.68 6 0 6 C-1 3 -1 3 0 0 Z " fill="#1D1D1D" transform="translate(376,387)"/>
<path d="M0 0 C2.76262553 0.3810518 3.84143894 0.83597132 5.8125 2.875 C6.204375 3.57625 6.59625 4.2775 7 5 C6.67 5.99 6.34 6.98 6 8 C2.24623848 6.74874616 1.75926711 5.4347596 0 2 C0 1.34 0 0.68 0 0 Z " fill="#242424" transform="translate(366,417)"/>
<path d="M0 0 C0.66 0.33 1.32 0.66 2 1 C1.01347016 4.31832766 0.31268497 5.76548627 -2.5 7.875 C-3.325 8.24625 -4.15 8.6175 -5 9 C-5.66 8.67 -6.32 8.34 -7 8 C-4.69 5.36 -2.38 2.72 0 0 Z " fill="#DBDBDB" transform="translate(372,304)"/>
<path d="M0 0 C3.08089673 2.77280706 4.68775452 5.06326356 6 9 C4.35 9 2.7 9 1 9 C1.33 7.68 1.66 6.36 2 5 C1.34 5 0.68 5 0 5 C0 3.35 0 1.7 0 0 Z " fill="#2E2E2E" transform="translate(349,389)"/>
<path d="M0 0 C0.99 0.33 1.98 0.66 3 1 C2.125 5.75 2.125 5.75 1 8 C0.34 8 -0.32 8 -1 8 C-0.67 5.36 -0.34 2.72 0 0 Z " fill="#1C1C1C" transform="translate(297,377)"/>
<path d="M0 0 C1.32 0.66 2.64 1.32 4 2 C3.01 2.33 2.02 2.66 1 3 C-0.37195574 4.29355827 -1.71182656 5.62298702 -3 7 C-3.66 6.67 -4.32 6.34 -5 6 C-3.35 4.02 -1.7 2.04 0 0 Z " fill="#2D2D2D" transform="translate(337,374)"/>
<path d="M0 0 C0.66 0.33 1.32 0.66 2 1 C0.68 1.33 -0.64 1.66 -2 2 C-2 3.32 -2 4.64 -2 6 C-4.97 5.505 -4.97 5.505 -8 5 C-5.31158141 2.74754119 -3.35358125 1.11786042 0 0 Z " fill="#303030" transform="translate(219,321)"/>
<path d="M0 0 C3 1 3 1 4.1875 3.0625 C4.455625 3.701875 4.72375 4.34125 5 5 C4.34 5.66 3.68 6.32 3 7 C1.5 5.75 1.5 5.75 0 4 C0 2.68 0 1.36 0 0 Z " fill="#181818" transform="translate(200,394)"/>
<path d="M0 0 C2 3 2 3 2 6 C1.34 6 0.68 6 0 6 C-0.33 6.66 -0.66 7.32 -1 8 C-1.33 5.69 -1.66 3.38 -2 1 C-1.34 0.67 -0.68 0.34 0 0 Z " fill="#151515" transform="translate(298,345)"/>
<path d="M0 0 C1.14926266 0.95421808 2.29430541 1.91352045 3.4375 2.875 C4.07558594 3.40867187 4.71367187 3.94234375 5.37109375 4.4921875 C7 6 7 6 8 8 C4.67689517 6.83242263 2.16638868 5.85051143 0 3 C0 2.01 0 1.02 0 0 Z " fill="#2B2B2B" transform="translate(261,329)"/>
<path d="M0 0 C0.66 0 1.32 0 2 0 C1.875 1.8125 1.875 1.8125 1 4 C-2.0625 5.75 -2.0625 5.75 -5 7 C-5 5.68 -5 4.36 -5 3 C-4.360625 2.87625 -3.72125 2.7525 -3.0625 2.625 C-2.0415625 2.315625 -2.0415625 2.315625 -1 2 C-0.67 1.34 -0.34 0.68 0 0 Z " fill="#181818" transform="translate(201,305)"/>
<path d="M0 0 C1.98 0.495 1.98 0.495 4 1 C3.01 2.98 2.02 4.96 1 7 C-0.0625 5.1875 -0.0625 5.1875 -1 3 C-0.67 2.01 -0.34 1.02 0 0 Z " fill="#161616" transform="translate(270,385)"/>
<path d="M0 0 C1.98 0.99 1.98 0.99 4 2 C4 4.64 4 7.28 4 10 C1.81024227 6.71536341 1.00193437 3.79303725 0 0 Z " fill="#171717" transform="translate(244,167)"/>
<path d="M0 0 C2.3125 0.1875 2.3125 0.1875 5 1 C6.8125 3.5625 6.8125 3.5625 8 6 C4.63408134 4.55746343 2.48952921 2.66735273 0 0 Z " fill="#4A4A4A" transform="translate(205,402)"/>
<path d="M0 0 C0.99 0.33 1.98 0.66 3 1 C1.515 3.475 1.515 3.475 0 6 C-0.66 4.68 -1.32 3.36 -2 2 C-1.34 1.34 -0.68 0.68 0 0 Z " fill="#1D1D1D" transform="translate(266,393)"/>
<path d="M0 0 C0.66 0.33 1.32 0.66 2 1 C2.75 3.4375 2.75 3.4375 3 6 C2.34 6.66 1.68 7.32 1 8 C-1.125 3.375 -1.125 3.375 0 0 Z " fill="#0F0F0F" transform="translate(365,370)"/>
<path d="M0 0 C0.33 0.66 0.66 1.32 1 2 C1.66 2.33 2.32 2.66 3 3 C1.35 4.32 -0.3 5.64 -2 7 C-2.33 6.34 -2.66 5.68 -3 5 C-1.5625 2.375 -1.5625 2.375 0 0 Z " fill="#171717" transform="translate(365,307)"/>
</svg>
